<mxfile host="app.diagrams.net" modified="2021-03-12T07:34:33.742Z" agent="5.0 (Windows)" etag="TGohwaKbYjtdWUxhwN2e" version="14.4.7" type="github">
  <diagram id="C5RBs43oDa-KdzZeNtuy" name="Page-1">
    <mxGraphModel dx="884" dy="511" grid="1" gridSize="10" guides="1" tooltips="1" connect="1" arrows="1" fold="1" page="1" pageScale="1" pageWidth="827" pageHeight="1169" background="#DAD2D8" math="0" shadow="0">
      <root>
        <mxCell id="WIyWlLk6GJQsqaUBKTNV-0" />
        <mxCell id="WIyWlLk6GJQsqaUBKTNV-1" parent="WIyWlLk6GJQsqaUBKTNV-0" />
        <mxCell id="WIyWlLk6GJQsqaUBKTNV-4" value="Yes" style="rounded=0;html=1;jettySize=auto;orthogonalLoop=1;fontSize=11;endArrow=block;endFill=0;endSize=8;strokeWidth=1;shadow=0;labelBackgroundColor=none;edgeStyle=orthogonalEdgeStyle;strokeColor=#A8201A;fontColor=#143642;" parent="WIyWlLk6GJQsqaUBKTNV-1" source="WIyWlLk6GJQsqaUBKTNV-6" target="WIyWlLk6GJQsqaUBKTNV-10" edge="1">
          <mxGeometry y="20" relative="1" as="geometry">
            <mxPoint as="offset" />
          </mxGeometry>
        </mxCell>
        <mxCell id="WIyWlLk6GJQsqaUBKTNV-5" value="No" style="edgeStyle=orthogonalEdgeStyle;rounded=0;html=1;jettySize=auto;orthogonalLoop=1;fontSize=11;endArrow=block;endFill=0;endSize=8;strokeWidth=1;shadow=0;labelBackgroundColor=none;strokeColor=#A8201A;fontColor=#143642;" parent="WIyWlLk6GJQsqaUBKTNV-1" source="WIyWlLk6GJQsqaUBKTNV-6" target="WIyWlLk6GJQsqaUBKTNV-7" edge="1">
          <mxGeometry y="10" relative="1" as="geometry">
            <mxPoint as="offset" />
          </mxGeometry>
        </mxCell>
        <mxCell id="WIyWlLk6GJQsqaUBKTNV-6" value="&lt;div&gt;interponer &lt;br&gt;&lt;/div&gt;&lt;div&gt;PQR&lt;/div&gt;" style="rhombus;whiteSpace=wrap;html=1;shadow=0;fontFamily=Helvetica;fontSize=12;align=center;strokeWidth=1;spacing=6;spacingTop=-4;fillColor=#FAE5C7;strokeColor=#0F8B8D;fontColor=#143642;" parent="WIyWlLk6GJQsqaUBKTNV-1" vertex="1">
          <mxGeometry x="166" y="112" width="100" height="80" as="geometry" />
        </mxCell>
        <mxCell id="WIyWlLk6GJQsqaUBKTNV-7" value="Diligenciar formulario en la Web" style="rounded=1;whiteSpace=wrap;html=1;fontSize=12;glass=0;strokeWidth=1;shadow=0;fillColor=#FAE5C7;strokeColor=#0F8B8D;fontColor=#143642;" parent="WIyWlLk6GJQsqaUBKTNV-1" vertex="1">
          <mxGeometry x="316" y="202" width="120" height="40" as="geometry" />
        </mxCell>
        <mxCell id="WIyWlLk6GJQsqaUBKTNV-8" value="No" style="rounded=0;html=1;jettySize=auto;orthogonalLoop=1;fontSize=11;endArrow=block;endFill=0;endSize=8;strokeWidth=1;shadow=0;labelBackgroundColor=none;edgeStyle=orthogonalEdgeStyle;entryX=0.5;entryY=0;entryDx=0;entryDy=0;strokeColor=#A8201A;fontColor=#143642;" parent="WIyWlLk6GJQsqaUBKTNV-1" source="WIyWlLk6GJQsqaUBKTNV-10" target="zaE4icUHc8UM19ilwFsd-3" edge="1">
          <mxGeometry x="0.3333" y="20" relative="1" as="geometry">
            <mxPoint as="offset" />
            <mxPoint x="216" y="442" as="targetPoint" />
          </mxGeometry>
        </mxCell>
        <mxCell id="WIyWlLk6GJQsqaUBKTNV-9" value="Yes" style="edgeStyle=orthogonalEdgeStyle;rounded=0;html=1;jettySize=auto;orthogonalLoop=1;fontSize=11;endArrow=block;endFill=0;endSize=8;strokeWidth=1;shadow=0;labelBackgroundColor=none;strokeColor=#A8201A;fontColor=#143642;" parent="WIyWlLk6GJQsqaUBKTNV-1" source="WIyWlLk6GJQsqaUBKTNV-10" target="WIyWlLk6GJQsqaUBKTNV-12" edge="1">
          <mxGeometry y="10" relative="1" as="geometry">
            <mxPoint as="offset" />
          </mxGeometry>
        </mxCell>
        <mxCell id="WIyWlLk6GJQsqaUBKTNV-10" value="analizar la situacion" style="rhombus;whiteSpace=wrap;html=1;shadow=0;fontFamily=Helvetica;fontSize=12;align=center;strokeWidth=1;spacing=6;spacingTop=-4;fillColor=#FAE5C7;strokeColor=#0F8B8D;fontColor=#143642;" parent="WIyWlLk6GJQsqaUBKTNV-1" vertex="1">
          <mxGeometry x="166" y="302" width="100" height="80" as="geometry" />
        </mxCell>
        <mxCell id="WIyWlLk6GJQsqaUBKTNV-12" value="redactar solicitud mediante el correo electronico" style="rounded=1;whiteSpace=wrap;html=1;fontSize=12;glass=0;strokeWidth=1;shadow=0;fillColor=#FAE5C7;strokeColor=#0F8B8D;fontColor=#143642;" parent="WIyWlLk6GJQsqaUBKTNV-1" vertex="1">
          <mxGeometry x="322" y="322" width="120" height="40" as="geometry" />
        </mxCell>
        <mxCell id="zaE4icUHc8UM19ilwFsd-2" value="INICIO" style="ellipse;whiteSpace=wrap;html=1;fillColor=#FAE5C7;strokeColor=#0F8B8D;fontColor=#143642;" vertex="1" parent="WIyWlLk6GJQsqaUBKTNV-1">
          <mxGeometry x="240" y="10" width="120" height="80" as="geometry" />
        </mxCell>
        <mxCell id="zaE4icUHc8UM19ilwFsd-3" value="Llamar al call center" style="rounded=1;whiteSpace=wrap;html=1;fontSize=12;glass=0;strokeWidth=1;shadow=0;fillColor=#FAE5C7;strokeColor=#0F8B8D;fontColor=#143642;" vertex="1" parent="WIyWlLk6GJQsqaUBKTNV-1">
          <mxGeometry x="154" y="498.5" width="124" height="45" as="geometry" />
        </mxCell>
        <mxCell id="zaE4icUHc8UM19ilwFsd-10" value="" style="edgeStyle=segmentEdgeStyle;endArrow=classic;html=1;entryX=0;entryY=0.5;entryDx=0;entryDy=0;labelBackgroundColor=#DAD2D8;strokeColor=#A8201A;fontColor=#143642;" edge="1" parent="WIyWlLk6GJQsqaUBKTNV-1" source="WIyWlLk6GJQsqaUBKTNV-6" target="zaE4icUHc8UM19ilwFsd-3">
          <mxGeometry width="50" height="50" relative="1" as="geometry">
            <mxPoint x="322" y="303" as="sourcePoint" />
            <mxPoint x="372" y="253" as="targetPoint" />
            <Array as="points">
              <mxPoint x="82" y="152" />
              <mxPoint x="82" y="521" />
            </Array>
          </mxGeometry>
        </mxCell>
        <mxCell id="zaE4icUHc8UM19ilwFsd-11" value="Actor" style="shape=umlActor;verticalLabelPosition=bottom;verticalAlign=top;html=1;outlineConnect=0;fillColor=#FAE5C7;strokeColor=#0F8B8D;fontColor=#143642;" vertex="1" parent="WIyWlLk6GJQsqaUBKTNV-1">
          <mxGeometry x="40" y="20" width="30" height="60" as="geometry" />
        </mxCell>
        <mxCell id="zaE4icUHc8UM19ilwFsd-22" value="" style="edgeStyle=segmentEdgeStyle;endArrow=classic;html=1;labelBackgroundColor=#DAD2D8;strokeColor=#A8201A;fontColor=#143642;" edge="1" target="zaE4icUHc8UM19ilwFsd-21" parent="WIyWlLk6GJQsqaUBKTNV-1">
          <mxGeometry width="50" height="50" relative="1" as="geometry">
            <mxPoint x="240" y="794" as="sourcePoint" />
            <mxPoint x="446" y="895" as="targetPoint" />
            <Array as="points">
              <mxPoint x="156" y="794" />
              <mxPoint x="156" y="1128" />
            </Array>
          </mxGeometry>
        </mxCell>
        <mxCell id="zaE4icUHc8UM19ilwFsd-25" value="" style="endArrow=classic;html=1;exitX=0.533;exitY=0.683;exitDx=0;exitDy=0;exitPerimeter=0;labelBackgroundColor=#DAD2D8;strokeColor=#A8201A;fontColor=#143642;" edge="1" parent="WIyWlLk6GJQsqaUBKTNV-1" source="zaE4icUHc8UM19ilwFsd-11" target="WIyWlLk6GJQsqaUBKTNV-6">
          <mxGeometry width="50" height="50" relative="1" as="geometry">
            <mxPoint x="60" y="345" as="sourcePoint" />
            <mxPoint x="216" y="110" as="targetPoint" />
            <Array as="points">
              <mxPoint x="170" y="100" />
            </Array>
          </mxGeometry>
        </mxCell>
        <mxCell id="zaE4icUHc8UM19ilwFsd-29" value="" style="edgeStyle=segmentEdgeStyle;endArrow=classic;html=1;labelBackgroundColor=#DAD2D8;strokeColor=#A8201A;fontColor=#143642;" edge="1" parent="WIyWlLk6GJQsqaUBKTNV-1" target="zaE4icUHc8UM19ilwFsd-32">
          <mxGeometry width="50" height="50" relative="1" as="geometry">
            <mxPoint x="278" y="515" as="sourcePoint" />
            <mxPoint x="440" y="515" as="targetPoint" />
          </mxGeometry>
        </mxCell>
        <mxCell id="zaE4icUHc8UM19ilwFsd-30" value="" style="edgeStyle=segmentEdgeStyle;endArrow=classic;html=1;exitX=1;exitY=0.5;exitDx=0;exitDy=0;labelBackgroundColor=#DAD2D8;strokeColor=#A8201A;fontColor=#143642;" edge="1" parent="WIyWlLk6GJQsqaUBKTNV-1" source="WIyWlLk6GJQsqaUBKTNV-7" target="zaE4icUHc8UM19ilwFsd-33">
          <mxGeometry width="50" height="50" relative="1" as="geometry">
            <mxPoint x="470" y="280" as="sourcePoint" />
            <mxPoint x="489.03999999999996" y="445" as="targetPoint" />
            <Array as="points">
              <mxPoint x="610" y="222" />
            </Array>
          </mxGeometry>
        </mxCell>
        <mxCell id="zaE4icUHc8UM19ilwFsd-31" value="" style="endArrow=classic;html=1;entryX=0.359;entryY=0.017;entryDx=0;entryDy=0;entryPerimeter=0;labelBackgroundColor=#DAD2D8;strokeColor=#A8201A;fontColor=#143642;" edge="1" parent="WIyWlLk6GJQsqaUBKTNV-1" source="WIyWlLk6GJQsqaUBKTNV-12" target="zaE4icUHc8UM19ilwFsd-32">
          <mxGeometry width="50" height="50" relative="1" as="geometry">
            <mxPoint x="390" y="370" as="sourcePoint" />
            <mxPoint x="382" y="415" as="targetPoint" />
          </mxGeometry>
        </mxCell>
        <mxCell id="zaE4icUHc8UM19ilwFsd-32" value="&lt;div&gt;La PQR &lt;br&gt;&lt;/div&gt;&lt;div&gt;se revisa, procesa, &lt;br&gt;&lt;/div&gt;&lt;div&gt;se saca conclusion y &lt;br&gt;&lt;/div&gt;&lt;div&gt;se busca solucion&lt;/div&gt;" style="shape=parallelogram;perimeter=parallelogramPerimeter;whiteSpace=wrap;html=1;fixedSize=1;fillColor=#FAE5C7;strokeColor=#0F8B8D;fontColor=#143642;" vertex="1" parent="WIyWlLk6GJQsqaUBKTNV-1">
          <mxGeometry x="300" y="408.5" width="190" height="90" as="geometry" />
        </mxCell>
        <mxCell id="zaE4icUHc8UM19ilwFsd-33" value="Proceder" style="rhombus;whiteSpace=wrap;html=1;fillColor=#FAE5C7;strokeColor=#0F8B8D;fontColor=#143642;" vertex="1" parent="WIyWlLk6GJQsqaUBKTNV-1">
          <mxGeometry x="580" y="405.25" width="110" height="104.75" as="geometry" />
        </mxCell>
        <mxCell id="zaE4icUHc8UM19ilwFsd-26" value="&lt;div&gt;Se hace la verificacion del caso si su PQR es? &lt;br&gt;&lt;/div&gt;&lt;div&gt;&lt;br&gt;&lt;/div&gt;" style="whiteSpace=wrap;html=1;aspect=fixed;fillColor=#FAE5C7;strokeColor=#0F8B8D;fontColor=#143642;" vertex="1" parent="WIyWlLk6GJQsqaUBKTNV-1">
          <mxGeometry x="450" y="602.5" width="100" height="100" as="geometry" />
        </mxCell>
        <mxCell id="zaE4icUHc8UM19ilwFsd-37" value="" style="edgeStyle=orthogonalEdgeStyle;startArrow=none;endArrow=none;rounded=0;targetPortConstraint=eastwest;sourcePortConstraint=northsouth;labelBackgroundColor=#DAD2D8;strokeColor=#A8201A;fontColor=#143642;" edge="1" target="zaE4icUHc8UM19ilwFsd-39" parent="WIyWlLk6GJQsqaUBKTNV-1">
          <mxGeometry relative="1" as="geometry">
            <mxPoint x="502" y="699" as="sourcePoint" />
          </mxGeometry>
        </mxCell>
        <mxCell id="zaE4icUHc8UM19ilwFsd-38" value="" style="edgeStyle=orthogonalEdgeStyle;startArrow=none;endArrow=none;rounded=0;targetPortConstraint=eastwest;sourcePortConstraint=northsouth;labelBackgroundColor=#DAD2D8;strokeColor=#A8201A;fontColor=#143642;" edge="1" target="zaE4icUHc8UM19ilwFsd-40" parent="WIyWlLk6GJQsqaUBKTNV-1" source="zaE4icUHc8UM19ilwFsd-26">
          <mxGeometry relative="1" as="geometry">
            <mxPoint x="502" y="699" as="sourcePoint" />
            <Array as="points">
              <mxPoint x="502" y="769" />
            </Array>
          </mxGeometry>
        </mxCell>
        <mxCell id="zaE4icUHc8UM19ilwFsd-39" value="Con justa causa" style="whiteSpace=wrap;html=1;align=center;verticalAlign=middle;treeFolding=1;treeMoving=1;fillColor=#FAE5C7;strokeColor=#0F8B8D;fontColor=#143642;" vertex="1" parent="WIyWlLk6GJQsqaUBKTNV-1">
          <mxGeometry x="392" y="739" width="100" height="60" as="geometry" />
        </mxCell>
        <mxCell id="zaE4icUHc8UM19ilwFsd-40" value="Sin justa causa" style="whiteSpace=wrap;html=1;align=center;verticalAlign=middle;treeFolding=1;treeMoving=1;fillColor=#FAE5C7;strokeColor=#0F8B8D;fontColor=#143642;" vertex="1" parent="WIyWlLk6GJQsqaUBKTNV-1">
          <mxGeometry x="512" y="739" width="100" height="60" as="geometry" />
        </mxCell>
        <mxCell id="zaE4icUHc8UM19ilwFsd-42" value="" style="edgeStyle=segmentEdgeStyle;endArrow=classic;html=1;exitX=0.5;exitY=1;exitDx=0;exitDy=0;labelBackgroundColor=#DAD2D8;strokeColor=#A8201A;fontColor=#143642;" edge="1" parent="WIyWlLk6GJQsqaUBKTNV-1" source="zaE4icUHc8UM19ilwFsd-33" target="zaE4icUHc8UM19ilwFsd-26">
          <mxGeometry width="50" height="50" relative="1" as="geometry">
            <mxPoint x="270" y="630" as="sourcePoint" />
            <mxPoint x="320" y="580" as="targetPoint" />
            <Array as="points">
              <mxPoint x="635" y="588" />
            </Array>
          </mxGeometry>
        </mxCell>
        <mxCell id="zaE4icUHc8UM19ilwFsd-43" value="Se aplicaran los correctivos necesarios, y se dara solucion" style="rounded=1;whiteSpace=wrap;html=1;fillColor=#FAE5C7;strokeColor=#0F8B8D;fontColor=#143642;" vertex="1" parent="WIyWlLk6GJQsqaUBKTNV-1">
          <mxGeometry x="342" y="859" width="120" height="60" as="geometry" />
        </mxCell>
        <mxCell id="zaE4icUHc8UM19ilwFsd-44" value="Si se determina que no es valida se le aplicara una sancion " style="rounded=1;whiteSpace=wrap;html=1;fillColor=#FAE5C7;strokeColor=#0F8B8D;fontColor=#143642;" vertex="1" parent="WIyWlLk6GJQsqaUBKTNV-1">
          <mxGeometry x="540" y="859" width="120" height="60" as="geometry" />
        </mxCell>
        <mxCell id="zaE4icUHc8UM19ilwFsd-45" value="" style="edgeStyle=segmentEdgeStyle;endArrow=classic;html=1;exitX=1;exitY=0.5;exitDx=0;exitDy=0;labelBackgroundColor=#DAD2D8;strokeColor=#A8201A;fontColor=#143642;" edge="1" parent="WIyWlLk6GJQsqaUBKTNV-1" source="zaE4icUHc8UM19ilwFsd-40" target="zaE4icUHc8UM19ilwFsd-44">
          <mxGeometry width="50" height="50" relative="1" as="geometry">
            <mxPoint x="630" y="710" as="sourcePoint" />
            <mxPoint x="710" y="720" as="targetPoint" />
            <Array as="points">
              <mxPoint x="640" y="769" />
              <mxPoint x="640" y="830" />
              <mxPoint x="600" y="830" />
            </Array>
          </mxGeometry>
        </mxCell>
        <mxCell id="zaE4icUHc8UM19ilwFsd-46" value="" style="edgeStyle=segmentEdgeStyle;endArrow=classic;html=1;labelBackgroundColor=#DAD2D8;strokeColor=#A8201A;fontColor=#143642;" edge="1" parent="WIyWlLk6GJQsqaUBKTNV-1" source="zaE4icUHc8UM19ilwFsd-39" target="zaE4icUHc8UM19ilwFsd-43">
          <mxGeometry width="50" height="50" relative="1" as="geometry">
            <mxPoint x="270" y="740" as="sourcePoint" />
            <mxPoint x="320" y="690" as="targetPoint" />
            <Array as="points">
              <mxPoint x="360" y="769" />
              <mxPoint x="360" y="830" />
              <mxPoint x="402" y="830" />
            </Array>
          </mxGeometry>
        </mxCell>
        <mxCell id="zaE4icUHc8UM19ilwFsd-49" value="Si al momento de enviar su solicitud supera 24 horas" style="rounded=1;whiteSpace=wrap;html=1;fillColor=#FAE5C7;strokeColor=#0F8B8D;fontColor=#143642;" vertex="1" parent="WIyWlLk6GJQsqaUBKTNV-1">
          <mxGeometry x="272" y="585" width="120" height="60" as="geometry" />
        </mxCell>
        <mxCell id="zaE4icUHc8UM19ilwFsd-50" value="" style="edgeStyle=segmentEdgeStyle;endArrow=classic;html=1;labelBackgroundColor=#DAD2D8;strokeColor=#A8201A;fontColor=#143642;" edge="1" target="zaE4icUHc8UM19ilwFsd-49" parent="WIyWlLk6GJQsqaUBKTNV-1" source="zaE4icUHc8UM19ilwFsd-32">
          <mxGeometry width="50" height="50" relative="1" as="geometry">
            <mxPoint x="110" y="680" as="sourcePoint" />
            <mxPoint x="400" y="620" as="targetPoint" />
            <Array as="points">
              <mxPoint x="420" y="615" />
            </Array>
          </mxGeometry>
        </mxCell>
        <mxCell id="zaE4icUHc8UM19ilwFsd-51" value="" style="endArrow=classic;html=1;labelBackgroundColor=#DAD2D8;strokeColor=#A8201A;fontColor=#143642;" edge="1" parent="WIyWlLk6GJQsqaUBKTNV-1" source="zaE4icUHc8UM19ilwFsd-32" target="zaE4icUHc8UM19ilwFsd-33">
          <mxGeometry width="50" height="50" relative="1" as="geometry">
            <mxPoint x="512" y="478.5" as="sourcePoint" />
            <mxPoint x="562" y="428.5" as="targetPoint" />
          </mxGeometry>
        </mxCell>
        <mxCell id="zaE4icUHc8UM19ilwFsd-53" value="El paso a seguir es" style="rhombus;whiteSpace=wrap;html=1;fillColor=#FAE5C7;strokeColor=#0F8B8D;fontColor=#143642;" vertex="1" parent="WIyWlLk6GJQsqaUBKTNV-1">
          <mxGeometry x="120" y="575" width="80" height="80" as="geometry" />
        </mxCell>
        <mxCell id="zaE4icUHc8UM19ilwFsd-54" value="Enviar el registro manifestando la situacion al jefe de la seccion" style="shape=document;whiteSpace=wrap;html=1;boundedLbl=1;fillColor=#FAE5C7;strokeColor=#0F8B8D;fontColor=#143642;" vertex="1" parent="WIyWlLk6GJQsqaUBKTNV-1">
          <mxGeometry x="100" y="729" width="120" height="80" as="geometry" />
        </mxCell>
        <mxCell id="zaE4icUHc8UM19ilwFsd-55" value="" style="edgeStyle=elbowEdgeStyle;elbow=vertical;endArrow=classic;html=1;entryX=0.5;entryY=0;entryDx=0;entryDy=0;exitX=0.5;exitY=1;exitDx=0;exitDy=0;labelBackgroundColor=#DAD2D8;strokeColor=#A8201A;fontColor=#143642;" edge="1" parent="WIyWlLk6GJQsqaUBKTNV-1" source="zaE4icUHc8UM19ilwFsd-53" target="zaE4icUHc8UM19ilwFsd-54">
          <mxGeometry width="50" height="50" relative="1" as="geometry">
            <mxPoint x="110" y="720" as="sourcePoint" />
            <mxPoint x="160" y="680" as="targetPoint" />
            <Array as="points">
              <mxPoint x="180" y="690" />
            </Array>
          </mxGeometry>
        </mxCell>
        <mxCell id="zaE4icUHc8UM19ilwFsd-56" value="" style="endArrow=classic;html=1;labelBackgroundColor=#DAD2D8;strokeColor=#A8201A;fontColor=#143642;" edge="1" parent="WIyWlLk6GJQsqaUBKTNV-1" source="zaE4icUHc8UM19ilwFsd-49" target="zaE4icUHc8UM19ilwFsd-53">
          <mxGeometry width="50" height="50" relative="1" as="geometry">
            <mxPoint x="210" y="652.5" as="sourcePoint" />
            <mxPoint x="210" y="603" as="targetPoint" />
          </mxGeometry>
        </mxCell>
        <mxCell id="zaE4icUHc8UM19ilwFsd-57" value="FIN" style="ellipse;whiteSpace=wrap;html=1;fillColor=#FAE5C7;strokeColor=#0F8B8D;fontColor=#143642;" vertex="1" parent="WIyWlLk6GJQsqaUBKTNV-1">
          <mxGeometry x="130" y="919" width="120" height="80" as="geometry" />
        </mxCell>
        <mxCell id="zaE4icUHc8UM19ilwFsd-58" value="" style="edgeStyle=elbowEdgeStyle;elbow=vertical;endArrow=classic;html=1;labelBackgroundColor=#DAD2D8;strokeColor=#A8201A;fontColor=#143642;" edge="1" parent="WIyWlLk6GJQsqaUBKTNV-1" source="zaE4icUHc8UM19ilwFsd-54" target="zaE4icUHc8UM19ilwFsd-57">
          <mxGeometry width="50" height="50" relative="1" as="geometry">
            <mxPoint x="230" y="870" as="sourcePoint" />
            <mxPoint x="280" y="820" as="targetPoint" />
            <Array as="points">
              <mxPoint x="60" y="860" />
            </Array>
          </mxGeometry>
        </mxCell>
        <mxCell id="zaE4icUHc8UM19ilwFsd-59" value="" style="edgeStyle=elbowEdgeStyle;elbow=vertical;endArrow=classic;html=1;labelBackgroundColor=#DAD2D8;strokeColor=#A8201A;fontColor=#143642;" edge="1" parent="WIyWlLk6GJQsqaUBKTNV-1" source="zaE4icUHc8UM19ilwFsd-44" target="zaE4icUHc8UM19ilwFsd-57">
          <mxGeometry width="50" height="50" relative="1" as="geometry">
            <mxPoint x="620" y="1010" as="sourcePoint" />
            <mxPoint x="280" y="820" as="targetPoint" />
            <Array as="points">
              <mxPoint x="590" y="990" />
            </Array>
          </mxGeometry>
        </mxCell>
        <mxCell id="zaE4icUHc8UM19ilwFsd-60" value="" style="edgeStyle=elbowEdgeStyle;elbow=vertical;endArrow=classic;html=1;labelBackgroundColor=#DAD2D8;strokeColor=#A8201A;fontColor=#143642;" edge="1" parent="WIyWlLk6GJQsqaUBKTNV-1" source="zaE4icUHc8UM19ilwFsd-43" target="zaE4icUHc8UM19ilwFsd-57">
          <mxGeometry width="50" height="50" relative="1" as="geometry">
            <mxPoint x="230" y="870" as="sourcePoint" />
            <mxPoint x="280" y="820" as="targetPoint" />
            <Array as="points">
              <mxPoint x="170" y="880" />
            </Array>
          </mxGeometry>
        </mxCell>
        <mxCell id="zaE4icUHc8UM19ilwFsd-61" value="" style="edgeStyle=elbowEdgeStyle;elbow=vertical;endArrow=classic;html=1;entryX=0.5;entryY=0.5;entryDx=0;entryDy=0;entryPerimeter=0;labelBackgroundColor=#DAD2D8;strokeColor=#A8201A;fontColor=#143642;" edge="1" parent="WIyWlLk6GJQsqaUBKTNV-1" source="zaE4icUHc8UM19ilwFsd-2" target="zaE4icUHc8UM19ilwFsd-11">
          <mxGeometry width="50" height="50" relative="1" as="geometry">
            <mxPoint x="190" y="90" as="sourcePoint" />
            <mxPoint x="240" y="40" as="targetPoint" />
          </mxGeometry>
        </mxCell>
        <mxCell id="zaE4icUHc8UM19ilwFsd-62" value="SI" style="text;html=1;strokeColor=none;fillColor=none;align=center;verticalAlign=middle;whiteSpace=wrap;rounded=0;sketch=0;fontColor=#143642;" vertex="1" parent="WIyWlLk6GJQsqaUBKTNV-1">
          <mxGeometry x="410" y="543.5" width="40" height="20" as="geometry" />
        </mxCell>
        <mxCell id="zaE4icUHc8UM19ilwFsd-63" value="SI" style="text;html=1;strokeColor=none;fillColor=none;align=center;verticalAlign=middle;whiteSpace=wrap;rounded=0;sketch=0;fontColor=#143642;" vertex="1" parent="WIyWlLk6GJQsqaUBKTNV-1">
          <mxGeometry x="50" y="322" width="40" height="20" as="geometry" />
        </mxCell>
        <mxCell id="zaE4icUHc8UM19ilwFsd-64" value="SI" style="text;html=1;strokeColor=none;fillColor=none;align=center;verticalAlign=middle;whiteSpace=wrap;rounded=0;sketch=0;fontColor=#143642;" vertex="1" parent="WIyWlLk6GJQsqaUBKTNV-1">
          <mxGeometry x="316" y="799" width="40" height="20" as="geometry" />
        </mxCell>
        <mxCell id="zaE4icUHc8UM19ilwFsd-67" value="NO" style="text;html=1;strokeColor=none;fillColor=none;align=center;verticalAlign=middle;whiteSpace=wrap;rounded=0;sketch=0;fontColor=#143642;" vertex="1" parent="WIyWlLk6GJQsqaUBKTNV-1">
          <mxGeometry x="630" y="789" width="40" height="20" as="geometry" />
        </mxCell>
        <mxCell id="zaE4icUHc8UM19ilwFsd-68" value="NO" style="text;html=1;strokeColor=none;fillColor=none;align=center;verticalAlign=middle;whiteSpace=wrap;rounded=0;sketch=0;fontColor=#143642;" vertex="1" parent="WIyWlLk6GJQsqaUBKTNV-1">
          <mxGeometry x="600" y="290" width="40" height="20" as="geometry" />
        </mxCell>
      </root>
    </mxGraphModel>
  </diagram>
</mxfile>
